# xmcd CD database file
#
# Track frame offsets:
#	150
#	21387
#	41668
#	63649
#	84502
#	100751
#	116258
#	133241
#	148946
#	169614
#	185926
#	203978
#	223883
#	242906
#
# Disc length: 3482 seconds
#
# Revision: 1
# Processed by: cddbd v1.5.1PL0 Copyright (c) Steve Scherf et al.
# Submitted via: CDex 1.51
#
DISCID=dc0d980e
DTITLE=Padre Antônio Maria - Com Vida
DYEAR=2004
DGENRE=Gospel and Religious
TTITLE0=O Homem das Mãos Perfuradas
TTITLE1=Força Estranha
TTITLE2=Direito de Viver
TTITLE3=Quem é Ele?
TTITLE4=Final dos Tempos
TTITLE5=É Preciso Saber Viver
TTITLE6=Estrela
TTITLE7=Deus Manda
TTITLE8=Jesus da Construção
TTITLE9=Agradecimento
TTITLE10=Olhos do Medo
TTITLE11=Guia-Me
TTITLE12=Haja o que Houver (Glória a Deus)
TTITLE13=Admirável
EXTD=YEAR: 2004
EXTT0=
EXTT1=
EXTT2=
EXTT3=
EXTT4=
EXTT5=
EXTT6=
EXTT7=
EXTT8=
EXTT9=
EXTT10=
EXTT11=
EXTT12=
EXTT13=
PLAYORDER=
